{"asset":{"version":"2.0","generator":"Toqi Island Adventure World"},"scene":0,"scenes":[{"name":"Island Adventure World","nodes":[0,1,2,3,4,5,6,7,8,9,10,11,12,13,14,15,16,17,18,19,20,21,22,23,24,25,26,27,28,29,30,31,32,33,34,35,36,37,38,39,40,41,42]}],"nodes":[{"name":"Ocean","mesh":0,"translation":[0,-3,0],"scale":[65,1,65]},{"name":"Island terrain","mesh":1,"translation":[0,-1.8,0],"scale":[23,0.7,20]},{"name":"Beach","mesh":2,"translation":[0,-2.35,0],"scale":[28,0.16,25]},{"name":"Village path","mesh":8,"translation":[0,-0.55,0],"scale":[1.05,0.07,16]},{"name":"Cabin","mesh":5,"translation":[0,0.25,1],"scale":[3.2,2.1,2.5]},{"name":"Cabin roof","mesh":6,"translation":[0,3.2,1],"scale":[3.8,1.4,3.1]},{"name":"Mountain 1","mesh":7,"translation":[-15,4.3,-11],"scale":[6,6,6]},{"name":"Mountain 2","mesh":7,"translation":[14,4.3,-11],"scale":[6,6,6]},{"name":"Mountain 3","mesh":7,"translation":[18,3.3,8],"scale":[5,5,5]},{"name":"Mountain 4","mesh":7,"translation":[-18,3.3,8],"scale":[5,5,5]},{"name":"Mountain 5","mesh":7,"translation":[-3,2.3,14],"scale":[4,4,4]},{"name":"Tree trunk 0","mesh":3,"translation":[-11,-0.2,-5],"scale":[0.28,1.4,0.28]},{"name":"Tree canopy 0","mesh":4,"translation":[-11,1.6,-5],"scale":[1.8,2.2,1.8]},{"name":"Tree trunk 1","mesh":3,"translation":[-15,-0.2,3],"scale":[0.336,1.68,0.336]},{"name":"Tree canopy 1","mesh":4,"translation":[-15,1.9600000000000002,3],"scale":[2.16,2.64,2.16]},{"name":"Tree trunk 2","mesh":3,"translation":[-9,-0.2,9],"scale":[0.25200000000000006,1.26,0.25200000000000006]},{"name":"Tree canopy 2","mesh":4,"translation":[-9,1.4200000000000002,9],"scale":[1.62,1.9800000000000002,1.62]},{"name":"Tree trunk 3","mesh":3,"translation":[10,-0.2,-5],"scale":[0.30800000000000005,1.54,0.30800000000000005]},{"name":"Tree canopy 3","mesh":4,"translation":[10,1.7800000000000002,-5],"scale":[1.9800000000000002,2.4200000000000004,1.9800000000000002]},{"name":"Tree trunk 4","mesh":3,"translation":[13,-0.2,4],"scale":[0.28,1.4,0.28]},{"name":"Tree canopy 4","mesh":4,"translation":[13,1.6,4],"scale":[1.8,2.2,1.8]},{"name":"Tree trunk 5","mesh":3,"translation":[7,-0.2,10],"scale":[0.25200000000000006,1.26,0.25200000000000006]},{"name":"Tree canopy 5","mesh":4,"translation":[7,1.4200000000000002,10],"scale":[1.62,1.9800000000000002,1.62]},{"name":"Tree trunk 6","mesh":3,"translation":[-5,-0.2,12],"scale":[0.25200000000000006,1.26,0.25200000000000006]},{"name":"Tree canopy 6","mesh":4,"translation":[-5,1.4200000000000002,12],"scale":[1.62,1.9800000000000002,1.62]},{"name":"Tree trunk 7","mesh":3,"translation":[4,-0.2,-11],"scale":[0.28,1.4,0.28]},{"name":"Tree canopy 7","mesh":4,"translation":[4,1.6,-11],"scale":[1.8,2.2,1.8]},{"name":"Tree trunk 8","mesh":3,"translation":[-18,-0.2,-4],"scale":[0.22400000000000003,1.1199999999999999,0.22400000000000003]},{"name":"Tree canopy 8","mesh":4,"translation":[-18,1.2400000000000002,-4],"scale":[1.4400000000000002,1.7600000000000002,1.4400000000000002]},{"name":"Tree trunk 9","mesh":3,"translation":[18,-0.2,-1],"scale":[0.25200000000000006,1.26,0.25200000000000006]},{"name":"Tree canopy 9","mesh":4,"translation":[18,1.4200000000000002,-1],"scale":[1.62,1.9800000000000002,1.62]},{"name":"Tree trunk 10","mesh":3,"translation":[-3,-0.2,-6],"scale":[0.22400000000000003,1.1199999999999999,0.22400000000000003]},{"name":"Tree canopy 10","mesh":4,"translation":[-3,1.2400000000000002,-6],"scale":[1.4400000000000002,1.7600000000000002,1.4400000000000002]},{"name":"Tree trunk 11","mesh":3,"translation":[7,-0.2,7],"scale":[0.22400000000000003,1.1199999999999999,0.22400000000000003]},{"name":"Tree canopy 11","mesh":4,"translation":[7,1.2400000000000002,7],"scale":[1.4400000000000002,1.7600000000000002,1.4400000000000002]},{"name":"Tree trunk 12","mesh":3,"translation":[-12,-0.2,-12],"scale":[0.22400000000000003,1.1199999999999999,0.22400000000000003]},{"name":"Tree canopy 12","mesh":4,"translation":[-12,1.2400000000000002,-12],"scale":[1.4400000000000002,1.7600000000000002,1.4400000000000002]},{"name":"Tree trunk 13","mesh":3,"translation":[15,-0.2,12],"scale":[0.23800000000000002,1.19,0.23800000000000002]},{"name":"Tree canopy 13","mesh":4,"translation":[15,1.33,12],"scale":[1.53,1.87,1.53]},{"name":"Lantern 0","mesh":9,"translation":[-1,1,-1],"scale":[0.32,0.32,0.32]},{"name":"Lantern 1","mesh":9,"translation":[1,1,-1],"scale":[0.32,0.32,0.32]},{"name":"Lantern 2","mesh":9,"translation":[-1,1,5],"scale":[0.32,0.32,0.32]},{"name":"Lantern 3","mesh":9,"translation":[1,1,5],"scale":[0.32,0.32,0.32]}],"meshes":[{"name":"Ocean","primitives":[{"attributes":{"POSITION":0},"material":0}]},{"name":"Island","primitives":[{"attributes":{"POSITION":1},"material":1}]},{"name":"Beach","primitives":[{"attributes":{"POSITION":2},"material":2}]},{"name":"Trunk","primitives":[{"attributes":{"POSITION":3},"material":3}]},{"name":"Canopy","primitives":[{"attributes":{"POSITION":4},"material":4}]},{"name":"Cabin","primitives":[{"attributes":{"POSITION":5},"material":5}]},{"name":"Roof","primitives":[{"attributes":{"POSITION":6},"material":6}]},{"name":"Mountain","primitives":[{"attributes":{"POSITION":7},"material":7}]},{"name":"Path","primitives":[{"attributes":{"POSITION":8},"material":8}]},{"name":"Lantern","primitives":[{"attributes":{"POSITION":9},"material":9}]}],"materials":[{"name":"Ocean","pbrMetallicRoughness":{"baseColorFactor":[0.02,0.21,0.49,1],"metallicFactor":0,"roughnessFactor":0.9}},{"name":"Island","pbrMetallicRoughness":{"baseColorFactor":[0.11,0.43,0.11,1],"metallicFactor":0,"roughnessFactor":0.9}},{"name":"Beach","pbrMetallicRoughness":{"baseColorFactor":[0.78,0.57,0.28,1],"metallicFactor":0,"roughnessFactor":0.9}},{"name":"Trunk","pbrMetallicRoughness":{"baseColorFactor":[0.26,0.1,0.02,1],"metallicFactor":0,"roughnessFactor":0.9}},{"name":"Canopy","pbrMetallicRoughness":{"baseColorFactor":[0.03,0.24,0.06,1],"metallicFactor":0,"roughnessFactor":0.9}},{"name":"Cabin","pbrMetallicRoughness":{"baseColorFactor":[0.72,0.25,0.07,1],"metallicFactor":0,"roughnessFactor":0.9}},{"name":"Roof","pbrMetallicRoughness":{"baseColorFactor":[0.38,0.03,0.01,1],"metallicFactor":0,"roughnessFactor":0.9}},{"name":"Mountain","pbrMetallicRoughness":{"baseColorFactor":[0.25,0.29,0.3,1],"metallicFactor":0,"roughnessFactor":0.9}},{"name":"Path","pbrMetallicRoughness":{"baseColorFactor":[0.52,0.35,0.14,1],"metallicFactor":0,"roughnessFactor":0.9}},{"name":"Lantern","pbrMetallicRoughness":{"baseColorFactor":[1,0.62,0.05,1],"metallicFactor":0,"roughnessFactor":0.9}}],"buffers":[{"uri":"data:application/octet-stream;base64,","byteLength":72},{"uri":"data:application/octet-stream;base64,","byteLength":432},{"uri":"data:application/octet-stream;base64,","byteLength":432},{"uri":"data:application/octet-stream;base64,","byteLength":432},{"uri":"data:application/octet-stream;base64,","byteLength":576},{"uri":"data:application/octet-stream;base64,","byteLength":432},{"uri":"data:application/octet-stream;base64,","byteLength":576},{"uri":"data:application/octet-stream;base64,","byteLength":576},{"uri":"data:application/octet-stream;base64,","byteLength":432},{"uri":"data:application/octet-stream;base64,","byteLength":576}],"bufferViews":[{"buffer":0,"byteLength":72,"target":34962},{"buffer":1,"byteLength":432,"target":34962},{"buffer":2,"byteLength":432,"target":34962},{"buffer":3,"byteLength":432,"target":34962},{"buffer":4,"byteLength":576,"target":34962},{"buffer":5,"byteLength":432,"target":34962},{"buffer":6,"byteLength":576,"target":34962},{"buffer":7,"byteLength":576,"target":34962},{"buffer":8,"byteLength":432,"target":34962},{"buffer":9,"byteLength":576,"target":34962}],"accessors":[{"bufferView":0,"componentType":5126,"count":6,"type":"VEC3","min":[-1,0,-1],"max":[1,0,1]},{"bufferView":1,"componentType":5126,"count":36,"type":"VEC3","min":[-1,-1,-1],"max":[1,1,1]},{"bufferView":2,"componentType":5126,"count":36,"type":"VEC3","min":[-1,-1,-1],"max":[1,1,1]},{"bufferView":3,"componentType":5126,"count":36,"type":"VEC3","min":[-1,-1,-1],"max":[1,1,1]},{"bufferView":4,"componentType":5126,"count":48,"type":"VEC3","min":[-1.0,-1,-1.0],"max":[1.0,1,1.0]},{"bufferView":5,"componentType":5126,"count":36,"type":"VEC3","min":[-1,-1,-1],"max":[1,1,1]},{"bufferView":6,"componentType":5126,"count":48,"type":"VEC3","min":[-1.0,-1,-1.0],"max":[1.0,1,1.0]},{"bufferView":7,"componentType":5126,"count":48,"type":"VEC3","min":[-1.0,-1,-1.0],"max":[1.0,1,1.0]},{"bufferView":8,"componentType":5126,"count":36,"type":"VEC3","min":[-1,-1,-1],"max":[1,1,1]},{"bufferView":9,"componentType":5126,"count":48,"type":"VEC3","min":[-1.0,-1,-1.0],"max":[1.0,1,1.0]}]}